# xmcd
# 
# Track frame offsets:
#     150
#     16470
#     32353
#     50519
#     70366
#     98491
#     122816
#     140800
#     166915
#     185257
#     207581
# 
# Disc length: 3060
# 
# Revision: 5
# Processed by: cddbd v1.5.2PL0 Copyright (c) Steve Scherf et al.
# Submitted via: BonkEnc v1.0.6
# 
DISCID=980bf20b
DTITLE=サカナクション - シンシロ
DYEAR=2009
DGENRE=Rock
TTITLE0=Ame (B)
TTITLE1=ライトダンス
TTITLE2=セントレイ
TTITLE3=ネイティブダンサー
TTITLE4=minnanouta
TTITLE5=雑踏
TTITLE6=黄色い車
TTITLE7=enough
TTITLE8=涙ディライト
TTITLE9=アドベンチャー
TTITLE10=human
EXTD=YEAR: 2009
EXTT0=
EXTT1=
EXTT2=
EXTT3=
EXTT4=
EXTT5=
EXTT6=
EXTT7=
EXTT8=
EXTT9=
EXTT10=
PLAYORDER=
